<?xml version="1.0" encoding="UTF-8" standalone="no"?>
<!DOCTYPE svg PUBLIC "-//W3C//DTD SVG 1.1//EN"
 "http://www.w3.org/Graphics/SVG/1.1/DTD/svg11.dtd">
<!-- Generated by graphviz version 2.47.1 (0)
 -->
<!-- Pages: 1 -->
<svg width="253pt" height="44pt"
 viewBox="0.00 0.00 252.99 44.00" xmlns="http://www.w3.org/2000/svg" xmlns:xlink="http://www.w3.org/1999/xlink">
<g id="graph0" class="graph" transform="scale(1 1) rotate(0) translate(4 40)">
<polygon fill="white" stroke="transparent" points="-4,4 -4,-40 248.99,-40 248.99,4 -4,4"/>
<!-- x -->
<g id="node1" class="node">
<title>x</title>
<ellipse fill="none" stroke="black" cx="27" cy="-18" rx="27" ry="18"/>
<text text-anchor="middle" x="27" y="-14.3" font-family="Times,serif" font-size="14.00">x</text>
</g>
<!-- nop -->
<g id="node3" class="node">
<title>nop</title>
<ellipse fill="none" stroke="black" cx="122.5" cy="-18" rx="32.49" ry="18"/>
<text text-anchor="middle" x="122.5" y="-14.3" font-family="Times,serif" font-size="14.00">NOP</text>
</g>
<!-- x&#45;&gt;nop -->
<g id="edge1" class="edge">
<title>x&#45;&gt;nop</title>
<path fill="none" stroke="black" d="M54.04,-18C62.04,-18 71.06,-18 79.83,-18"/>
<polygon fill="black" stroke="black" points="79.94,-21.5 89.94,-18 79.94,-14.5 79.94,-21.5"/>
</g>
<!-- y -->
<g id="node2" class="node">
<title>y</title>
<ellipse fill="none" stroke="black" cx="217.99" cy="-18" rx="27" ry="18"/>
<text text-anchor="middle" x="217.99" y="-14.3" font-family="Times,serif" font-size="14.00">y</text>
</g>
<!-- nop&#45;&gt;y -->
<g id="edge2" class="edge">
<title>nop&#45;&gt;y</title>
<path fill="none" stroke="black" d="M155.15,-18C163.44,-18 172.43,-18 180.93,-18"/>
<polygon fill="black" stroke="black" points="180.97,-21.5 190.97,-18 180.97,-14.5 180.97,-21.5"/>
</g>
</g>
</svg>
