<?xml version="1.0" encoding="UTF-8" standalone="no"?>
<!DOCTYPE svg PUBLIC "-//W3C//DTD SVG 1.1//EN"
 "http://www.w3.org/Graphics/SVG/1.1/DTD/svg11.dtd">
<!-- Generated by graphviz version 2.47.1 (0)
 -->
<!-- Title: AST Pages: 1 -->
<svg width="241pt" height="332pt"
 viewBox="0.00 0.00 240.95 332.00" xmlns="http://www.w3.org/2000/svg" xmlns:xlink="http://www.w3.org/1999/xlink">
<g id="graph0" class="graph" transform="scale(1 1) rotate(0) translate(4 328)">
<title>AST</title>
<polygon fill="white" stroke="transparent" points="-4,4 -4,-328 236.95,-328 236.95,4 -4,4"/>
<!-- pointer -->
<g id="node1" class="node">
<title>pointer</title>
<ellipse fill="none" stroke="black" cx="44.2" cy="-306" rx="44.39" ry="18"/>
<text text-anchor="middle" x="44.2" y="-302.3" font-family="Times,serif" font-size="14.00">pointer</text>
</g>
<!-- void -->
<g id="node2" class="node">
<title>void</title>
<ellipse fill="none" stroke="black" cx="81.2" cy="-18" rx="30.59" ry="18"/>
<text text-anchor="middle" x="81.2" y="-14.3" font-family="Times,serif" font-size="14.00">void</text>
</g>
<!-- pointer&#45;&gt;void -->
<g id="edge1" class="edge">
<title>pointer&#45;&gt;void</title>
<path fill="none" stroke="black" d="M42.31,-287.92C38.55,-248.81 32.25,-150.16 54.2,-72 56.9,-62.36 61.43,-52.42 66.01,-43.79"/>
<polygon fill="black" stroke="black" points="69.09,-45.46 70.92,-35.02 62.98,-42.04 69.09,-45.46"/>
</g>
<!-- integral -->
<g id="node3" class="node">
<title>integral</title>
<ellipse fill="none" stroke="black" cx="99.2" cy="-234" rx="47.39" ry="18"/>
<text text-anchor="middle" x="99.2" y="-230.3" font-family="Times,serif" font-size="14.00">integral</text>
</g>
<!-- pointer&#45;&gt;integral -->
<g id="edge2" class="edge">
<title>pointer&#45;&gt;integral</title>
<path fill="none" stroke="black" d="M56.95,-288.76C63.73,-280.14 72.2,-269.36 79.77,-259.73"/>
<polygon fill="black" stroke="black" points="82.7,-261.66 86.13,-251.63 77.2,-257.33 82.7,-261.66"/>
</g>
<!-- integral&#45;&gt;void -->
<g id="edge3" class="edge">
<title>integral&#45;&gt;void</title>
<path fill="none" stroke="black" d="M83.93,-216.78C75.76,-206.95 66.51,-193.7 62.2,-180 47.79,-134.21 61.01,-77.98 71.44,-45.54"/>
<polygon fill="black" stroke="black" points="74.82,-46.48 74.69,-35.88 68.19,-44.24 74.82,-46.48"/>
</g>
<!-- floating -->
<g id="node4" class="node">
<title>floating</title>
<ellipse fill="none" stroke="black" cx="117.2" cy="-162" rx="46.29" ry="18"/>
<text text-anchor="middle" x="117.2" y="-158.3" font-family="Times,serif" font-size="14.00">floating</text>
</g>
<!-- integral&#45;&gt;floating -->
<g id="edge4" class="edge">
<title>integral&#45;&gt;floating</title>
<path fill="none" stroke="black" d="M103.55,-216.05C105.56,-208.26 107.98,-198.82 110.23,-190.08"/>
<polygon fill="black" stroke="black" points="113.65,-190.83 112.75,-180.28 106.87,-189.09 113.65,-190.83"/>
</g>
<!-- floating&#45;&gt;void -->
<g id="edge7" class="edge">
<title>floating&#45;&gt;void</title>
<path fill="none" stroke="black" d="M111.25,-143.94C107.76,-133.62 103.43,-120.14 100.2,-108 94.74,-87.52 89.78,-64.06 86.3,-46.37"/>
<polygon fill="black" stroke="black" points="89.67,-45.34 84.33,-36.18 82.79,-46.66 89.67,-45.34"/>
</g>
<!-- complex -->
<g id="node6" class="node">
<title>complex</title>
<ellipse fill="none" stroke="black" cx="158.2" cy="-90" rx="49.29" ry="18"/>
<text text-anchor="middle" x="158.2" y="-86.3" font-family="Times,serif" font-size="14.00">complex</text>
</g>
<!-- floating&#45;&gt;complex -->
<g id="edge8" class="edge">
<title>floating&#45;&gt;complex</title>
<path fill="none" stroke="black" d="M127.12,-144.05C131.96,-135.8 137.87,-125.7 143.24,-116.54"/>
<polygon fill="black" stroke="black" points="146.33,-118.19 148.36,-107.79 140.29,-114.65 146.33,-118.19"/>
</g>
<!-- boolean -->
<g id="node5" class="node">
<title>boolean</title>
<ellipse fill="none" stroke="black" cx="154.2" cy="-306" rx="46.59" ry="18"/>
<text text-anchor="middle" x="154.2" y="-302.3" font-family="Times,serif" font-size="14.00">boolean</text>
</g>
<!-- boolean&#45;&gt;void -->
<g id="edge5" class="edge">
<title>boolean&#45;&gt;void</title>
<path fill="none" stroke="black" d="M167,-288.5C196.7,-248.1 264.18,-142.38 216.2,-72 195.17,-41.16 153.23,-28.26 121.64,-22.87"/>
<polygon fill="black" stroke="black" points="121.78,-19.35 111.37,-21.32 120.74,-26.28 121.78,-19.35"/>
</g>
<!-- boolean&#45;&gt;integral -->
<g id="edge6" class="edge">
<title>boolean&#45;&gt;integral</title>
<path fill="none" stroke="black" d="M141.16,-288.41C134.38,-279.78 125.96,-269.06 118.44,-259.5"/>
<polygon fill="black" stroke="black" points="121.07,-257.17 112.14,-251.47 115.56,-261.5 121.07,-257.17"/>
</g>
<!-- complex&#45;&gt;void -->
<g id="edge9" class="edge">
<title>complex&#45;&gt;void</title>
<path fill="none" stroke="black" d="M140.72,-73.12C130.12,-63.48 116.46,-51.06 104.89,-40.54"/>
<polygon fill="black" stroke="black" points="107.04,-37.76 97.29,-33.63 102.33,-42.94 107.04,-37.76"/>
</g>
</g>
</svg>
