<?xml version="1.0" encoding="UTF-8" standalone="no"?>
<!DOCTYPE svg PUBLIC "-//W3C//DTD SVG 1.1//EN"
 "http://www.w3.org/Graphics/SVG/1.1/DTD/svg11.dtd">
<!-- Generated by graphviz version 2.47.1 (0)
 -->
<!-- Title: BlockChunkGraph Pages: 1 -->
<svg width="305pt" height="188pt"
 viewBox="0.00 0.00 305.04 188.00" xmlns="http://www.w3.org/2000/svg" xmlns:xlink="http://www.w3.org/1999/xlink">
<g id="graph0" class="graph" transform="scale(1 1) rotate(0) translate(4 184)">
<title>BlockChunkGraph</title>
<polygon fill="white" stroke="transparent" points="-4,4 -4,-184 301.04,-184 301.04,4 -4,4"/>
<!-- x -->
<g id="node1" class="node">
<title>x</title>
<polygon fill="none" stroke="black" points="48,-36 0,-36 0,0 54,0 54,-30 48,-36"/>
<polyline fill="none" stroke="black" points="48,-36 48,-30 "/>
<polyline fill="none" stroke="black" points="54,-30 48,-30 "/>
<text text-anchor="middle" x="27" y="-14.3" font-family="Times,serif" font-size="14.00">int x</text>
</g>
<!-- main -->
<g id="node2" class="node">
<title>main</title>
<ellipse fill="none" stroke="black" cx="61" cy="-162" rx="33.6" ry="18"/>
<text text-anchor="middle" x="61" y="-158.3" font-family="Times,serif" font-size="14.00">main</text>
</g>
<!-- main&#45;&gt;x -->
<g id="edge3" class="edge">
<title>main&#45;&gt;x</title>
<path fill="none" stroke="black" stroke-dasharray="1,5" d="M41.89,-146.58C30.87,-137.01 18.03,-123.4 12,-108 4.14,-87.93 9.06,-63.74 15.29,-45.65"/>
<polygon fill="black" stroke="black" points="18.57,-46.88 18.81,-36.29 12.01,-44.41 18.57,-46.88"/>
</g>
<!-- main1 -->
<g id="node3" class="node">
<title>main1</title>
<ellipse fill="none" stroke="black" cx="61" cy="-90" rx="39.79" ry="18"/>
<text text-anchor="middle" x="61" y="-86.3" font-family="Times,serif" font-size="14.00">main1</text>
</g>
<!-- main&#45;&gt;main1 -->
<g id="edge1" class="edge">
<title>main&#45;&gt;main1</title>
<path fill="none" stroke="black" d="M61,-143.7C61,-135.98 61,-126.71 61,-118.11"/>
<polygon fill="black" stroke="black" points="64.5,-118.1 61,-108.1 57.5,-118.1 64.5,-118.1"/>
</g>
<!-- printf@libc.stdio -->
<g id="node4" class="node">
<title>printf@libc.stdio</title>
<ellipse fill="none" stroke="black" cx="208" cy="-90" rx="89.08" ry="18"/>
<text text-anchor="middle" x="208" y="-86.3" font-family="Times,serif" font-size="14.00">printf@libc.stdio</text>
</g>
<!-- main&#45;&gt;printf@libc.stdio -->
<g id="edge2" class="edge">
<title>main&#45;&gt;printf@libc.stdio</title>
<path fill="none" stroke="black" stroke-dasharray="1,5" d="M85.27,-149.44C107.06,-139.07 139.53,-123.6 165.6,-111.19"/>
<polygon fill="black" stroke="black" points="167.36,-114.23 174.88,-106.77 164.35,-107.91 167.36,-114.23"/>
</g>
<!-- main1&#45;&gt;x -->
<g id="edge4" class="edge">
<title>main1&#45;&gt;x</title>
<path fill="none" stroke="black" stroke-dasharray="1,5" d="M52.77,-72.05C48.9,-64.09 44.2,-54.41 39.88,-45.51"/>
<polygon fill="black" stroke="black" points="42.91,-43.74 35.39,-36.28 36.61,-46.8 42.91,-43.74"/>
</g>
</g>
</svg>
