<?xml version="1.0" encoding="UTF-8" standalone="no"?>
<!DOCTYPE svg PUBLIC "-//W3C//DTD SVG 1.1//EN"
 "http://www.w3.org/Graphics/SVG/1.1/DTD/svg11.dtd">
<!-- Generated by graphviz version 2.47.1 (0)
 -->
<!-- Title: AST Pages: 1 -->
<svg width="1061pt" height="476pt"
 viewBox="0.00 0.00 1060.50 476.00" xmlns="http://www.w3.org/2000/svg" xmlns:xlink="http://www.w3.org/1999/xlink">
<g id="graph0" class="graph" transform="scale(1 1) rotate(0) translate(4 472)">
<title>AST</title>
<polygon fill="white" stroke="transparent" points="-4,4 -4,-472 1056.5,-472 1056.5,4 -4,4"/>
<!-- 0 -->
<g id="node1" class="node">
<title>0</title>
<polygon fill="none" stroke="black" points="115.5,-468 61.5,-468 61.5,-432 115.5,-432 115.5,-468"/>
<text text-anchor="middle" x="88.5" y="-446.3" font-family="Times,serif" font-size="14.00">spec</text>
</g>
<!-- 1 -->
<g id="node2" class="node">
<title>1</title>
<polygon fill="none" stroke="black" points="71,-396 12,-396 12,-360 71,-360 71,-396"/>
<text text-anchor="middle" x="41.5" y="-374.3" font-family="Times,serif" font-size="14.00">chunk</text>
</g>
<!-- 0&#45;&gt;1 -->
<g id="edge3" class="edge">
<title>0&#45;&gt;1</title>
<path fill="none" stroke="black" d="M76.88,-431.7C71.36,-423.47 64.65,-413.48 58.57,-404.42"/>
<polygon fill="black" stroke="black" points="61.46,-402.46 52.98,-396.1 55.65,-406.36 61.46,-402.46"/>
</g>
<!-- 4 -->
<g id="node5" class="node">
<title>4</title>
<polygon fill="none" stroke="black" points="183.5,-396 89.5,-396 89.5,-360 183.5,-360 183.5,-396"/>
<text text-anchor="middle" x="136.5" y="-374.3" font-family="Times,serif" font-size="14.00">block main</text>
</g>
<!-- 0&#45;&gt;4 -->
<g id="edge23" class="edge">
<title>0&#45;&gt;4</title>
<path fill="none" stroke="black" d="M100.37,-431.7C106,-423.47 112.85,-413.48 119.07,-404.42"/>
<polygon fill="black" stroke="black" points="122,-406.33 124.77,-396.1 116.23,-402.37 122,-406.33"/>
</g>
<!-- 2 -->
<g id="node3" class="node">
<title>2</title>
<polygon fill="none" stroke="black" points="80,-324 3,-324 3,-288 80,-288 80,-324"/>
<text text-anchor="middle" x="41.5" y="-302.3" font-family="Times,serif" font-size="14.00">var int x</text>
</g>
<!-- 1&#45;&gt;2 -->
<g id="edge2" class="edge">
<title>1&#45;&gt;2</title>
<path fill="none" stroke="black" d="M41.5,-359.7C41.5,-351.98 41.5,-342.71 41.5,-334.11"/>
<polygon fill="black" stroke="black" points="45,-334.1 41.5,-324.1 38,-334.1 45,-334.1"/>
</g>
<!-- 3 -->
<g id="node4" class="node">
<title>3</title>
<polygon fill="none" stroke="black" points="68.5,-252 14.5,-252 14.5,-216 68.5,-216 68.5,-252"/>
<text text-anchor="middle" x="41.5" y="-230.3" font-family="Times,serif" font-size="14.00">0</text>
</g>
<!-- 2&#45;&gt;3 -->
<g id="edge1" class="edge">
<title>2&#45;&gt;3</title>
<path fill="none" stroke="black" d="M41.5,-287.7C41.5,-279.98 41.5,-270.71 41.5,-262.11"/>
<polygon fill="black" stroke="black" points="45,-262.1 41.5,-252.1 38,-262.1 45,-262.1"/>
</g>
<!-- 5 -->
<g id="node6" class="node">
<title>5</title>
<polygon fill="none" stroke="black" points="164,-324 109,-324 109,-288 164,-288 164,-324"/>
<text text-anchor="middle" x="136.5" y="-302.3" font-family="Times,serif" font-size="14.00">while</text>
</g>
<!-- 4&#45;&gt;5 -->
<g id="edge22" class="edge">
<title>4&#45;&gt;5</title>
<path fill="none" stroke="black" d="M136.5,-359.7C136.5,-351.98 136.5,-342.71 136.5,-334.11"/>
<polygon fill="black" stroke="black" points="140,-334.1 136.5,-324.1 133,-334.1 140,-334.1"/>
</g>
<!-- 6 -->
<g id="node7" class="node">
<title>6</title>
<polygon fill="none" stroke="black" points="174,-252 91,-252 91,-216 174,-216 174,-252"/>
<text text-anchor="middle" x="132.5" y="-230.3" font-family="Times,serif" font-size="14.00">condition</text>
</g>
<!-- 5&#45;&gt;6 -->
<g id="edge8" class="edge">
<title>5&#45;&gt;6</title>
<path fill="none" stroke="black" d="M135.51,-287.7C135.07,-279.98 134.54,-270.71 134.05,-262.11"/>
<polygon fill="black" stroke="black" points="137.54,-261.89 133.48,-252.1 130.55,-262.29 137.54,-261.89"/>
</g>
<!-- 11 -->
<g id="node12" class="node">
<title>11</title>
<polygon fill="none" stroke="black" points="661,-252 578,-252 578,-216 661,-216 661,-252"/>
<text text-anchor="middle" x="619.5" y="-230.3" font-family="Times,serif" font-size="14.00">condition</text>
</g>
<!-- 5&#45;&gt;11 -->
<g id="edge21" class="edge">
<title>5&#45;&gt;11</title>
<path fill="none" stroke="black" d="M164.2,-300.99C242.4,-289.65 465.75,-257.28 567.66,-242.51"/>
<polygon fill="black" stroke="black" points="568.33,-245.95 577.72,-241.05 567.32,-239.03 568.33,-245.95"/>
</g>
<!-- 7 -->
<g id="node8" class="node">
<title>7</title>
<polygon fill="none" stroke="black" points="159.5,-180 105.5,-180 105.5,-144 159.5,-144 159.5,-180"/>
<text text-anchor="middle" x="132.5" y="-158.3" font-family="Times,serif" font-size="14.00">&lt;</text>
</g>
<!-- 6&#45;&gt;7 -->
<g id="edge7" class="edge">
<title>6&#45;&gt;7</title>
<path fill="none" stroke="black" d="M132.5,-215.7C132.5,-207.98 132.5,-198.71 132.5,-190.11"/>
<polygon fill="black" stroke="black" points="136,-190.1 132.5,-180.1 129,-190.1 136,-190.1"/>
</g>
<!-- 8 -->
<g id="node9" class="node">
<title>8</title>
<polygon fill="none" stroke="black" points="87,-108 0,-108 0,-72 87,-72 87,-108"/>
<text text-anchor="middle" x="43.5" y="-86.3" font-family="Times,serif" font-size="14.00">variable x</text>
</g>
<!-- 7&#45;&gt;8 -->
<g id="edge4" class="edge">
<title>7&#45;&gt;8</title>
<path fill="none" stroke="black" d="M110.5,-143.7C99.29,-134.88 85.5,-124.03 73.35,-114.47"/>
<polygon fill="black" stroke="black" points="75.27,-111.54 65.25,-108.1 70.94,-117.04 75.27,-111.54"/>
</g>
<!-- 9 -->
<!-- 7&#45;&gt;9 -->
<!-- 10 -->
<g id="node11" class="node">
<title>10</title>
<polygon fill="none" stroke="black" points="231.5,-108 177.5,-108 177.5,-72 231.5,-72 231.5,-108"/>
<text text-anchor="middle" x="204.5" y="-86.3" font-family="Times,serif" font-size="14.00">10</text>
</g>
<!-- 7&#45;&gt;10 -->
<g id="edge6" class="edge">
<title>7&#45;&gt;10</title>
<path fill="none" stroke="black" d="M150.3,-143.7C159.1,-135.14 169.88,-124.66 179.5,-115.3"/>
<polygon fill="black" stroke="black" points="182.18,-117.58 186.91,-108.1 177.3,-112.57 182.18,-117.58"/>
</g>
<!-- 12 -->
<g id="node13" class="node">
<title>12</title>
<polygon fill="none" stroke="black" points="574.5,-180 518.5,-180 518.5,-144 574.5,-144 574.5,-180"/>
<text text-anchor="middle" x="546.5" y="-158.3" font-family="Times,serif" font-size="14.00">apply</text>
</g>
<!-- 11&#45;&gt;12 -->
<g id="edge12" class="edge">
<title>11&#45;&gt;12</title>
<path fill="none" stroke="black" d="M601.46,-215.7C592.44,-207.05 581.38,-196.45 571.56,-187.03"/>
<polygon fill="black" stroke="black" points="573.98,-184.5 564.34,-180.1 569.13,-189.55 573.98,-184.5"/>
</g>
<!-- 16 -->
<g id="node17" class="node">
<title>16</title>
<polygon fill="none" stroke="black" points="646.5,-180 592.5,-180 592.5,-144 646.5,-144 646.5,-180"/>
<text text-anchor="middle" x="619.5" y="-158.3" font-family="Times,serif" font-size="14.00">...</text>
</g>
<!-- 11&#45;&gt;16 -->
<g id="edge13" class="edge">
<title>11&#45;&gt;16</title>
<path fill="none" stroke="black" d="M619.5,-215.7C619.5,-207.98 619.5,-198.71 619.5,-190.11"/>
<polygon fill="black" stroke="black" points="623,-190.1 619.5,-180.1 616,-190.1 623,-190.1"/>
</g>
<!-- 17 -->
<g id="node18" class="node">
<title>17</title>
<polygon fill="none" stroke="black" points="908.5,-180 854.5,-180 854.5,-144 908.5,-144 908.5,-180"/>
<text text-anchor="middle" x="881.5" y="-158.3" font-family="Times,serif" font-size="14.00">=</text>
</g>
<!-- 11&#45;&gt;17 -->
<g id="edge20" class="edge">
<title>11&#45;&gt;17</title>
<path fill="none" stroke="black" d="M661.01,-221.91C711.53,-208.41 796.05,-185.83 844.46,-172.9"/>
<polygon fill="black" stroke="black" points="845.45,-176.25 854.21,-170.29 843.65,-169.49 845.45,-176.25"/>
</g>
<!-- 13 -->
<g id="node14" class="node">
<title>13</title>
<polygon fill="none" stroke="black" points="449,-108 250,-108 250,-72 449,-72 449,-108"/>
<text text-anchor="middle" x="349.5" y="-86.3" font-family="Times,serif" font-size="14.00">variable printf@libc.stdio</text>
</g>
<!-- 12&#45;&gt;13 -->
<g id="edge9" class="edge">
<title>12&#45;&gt;13</title>
<path fill="none" stroke="black" d="M518.27,-150.97C489.37,-140.7 443.61,-124.44 407.02,-111.44"/>
<polygon fill="black" stroke="black" points="408.05,-108.09 397.46,-108.04 405.71,-114.69 408.05,-108.09"/>
</g>
<!-- 14 -->
<g id="node15" class="node">
<title>14</title>
<polygon fill="none" stroke="black" points="626,-108 467,-108 467,-72 626,-72 626,-108"/>
<text text-anchor="middle" x="546.5" y="-86.3" font-family="Times,serif" font-size="14.00">&quot;Hello world! %d\n&quot;</text>
</g>
<!-- 12&#45;&gt;14 -->
<g id="edge10" class="edge">
<title>12&#45;&gt;14</title>
<path fill="none" stroke="black" d="M546.5,-143.7C546.5,-135.98 546.5,-126.71 546.5,-118.11"/>
<polygon fill="black" stroke="black" points="550,-118.1 546.5,-108.1 543,-118.1 550,-118.1"/>
</g>
<!-- 15 -->
<g id="node16" class="node">
<title>15</title>
<polygon fill="none" stroke="black" points="731,-108 644,-108 644,-72 731,-72 731,-108"/>
<text text-anchor="middle" x="687.5" y="-86.3" font-family="Times,serif" font-size="14.00">variable x</text>
</g>
<!-- 12&#45;&gt;15 -->
<g id="edge11" class="edge">
<title>12&#45;&gt;15</title>
<path fill="none" stroke="black" d="M574.69,-147C594.54,-137.15 621.49,-123.77 644.07,-112.56"/>
<polygon fill="black" stroke="black" points="645.72,-115.65 653.12,-108.07 642.61,-109.38 645.72,-115.65"/>
</g>
<!-- 18 -->
<g id="node19" class="node">
<title>18</title>
<polygon fill="none" stroke="black" points="836,-108 749,-108 749,-72 836,-72 836,-108"/>
<text text-anchor="middle" x="792.5" y="-86.3" font-family="Times,serif" font-size="14.00">variable x</text>
</g>
<!-- 17&#45;&gt;18 -->
<g id="edge14" class="edge">
<title>17&#45;&gt;18</title>
<path fill="none" stroke="black" d="M859.5,-143.7C848.29,-134.88 834.5,-124.03 822.35,-114.47"/>
<polygon fill="black" stroke="black" points="824.27,-111.54 814.25,-108.1 819.94,-117.04 824.27,-111.54"/>
</g>
<!-- 19 -->
<!-- 17&#45;&gt;19 -->
<!-- 20 -->
<g id="node21" class="node">
<title>20</title>
<polygon fill="none" stroke="black" points="980.5,-108 926.5,-108 926.5,-72 980.5,-72 980.5,-108"/>
<text text-anchor="middle" x="953.5" y="-86.3" font-family="Times,serif" font-size="14.00">+</text>
</g>
<!-- 17&#45;&gt;20 -->
<g id="edge19" class="edge">
<title>17&#45;&gt;20</title>
<path fill="none" stroke="black" d="M899.3,-143.7C908.1,-135.14 918.88,-124.66 928.5,-115.3"/>
<polygon fill="black" stroke="black" points="931.18,-117.58 935.91,-108.1 926.3,-112.57 931.18,-117.58"/>
</g>
<!-- 21 -->
<g id="node22" class="node">
<title>21</title>
<polygon fill="none" stroke="black" points="908,-36 821,-36 821,0 908,0 908,-36"/>
<text text-anchor="middle" x="864.5" y="-14.3" font-family="Times,serif" font-size="14.00">variable x</text>
</g>
<!-- 20&#45;&gt;21 -->
<g id="edge16" class="edge">
<title>20&#45;&gt;21</title>
<path fill="none" stroke="black" d="M931.5,-71.7C920.29,-62.88 906.5,-52.03 894.35,-42.47"/>
<polygon fill="black" stroke="black" points="896.27,-39.54 886.25,-36.1 891.94,-45.04 896.27,-39.54"/>
</g>
<!-- 22 -->
<!-- 20&#45;&gt;22 -->
<!-- 23 -->
<g id="node24" class="node">
<title>23</title>
<polygon fill="none" stroke="black" points="1052.5,-36 998.5,-36 998.5,0 1052.5,0 1052.5,-36"/>
<text text-anchor="middle" x="1025.5" y="-14.3" font-family="Times,serif" font-size="14.00">1</text>
</g>
<!-- 20&#45;&gt;23 -->
<g id="edge18" class="edge">
<title>20&#45;&gt;23</title>
<path fill="none" stroke="black" d="M971.3,-71.7C980.1,-63.14 990.88,-52.66 1000.5,-43.3"/>
<polygon fill="black" stroke="black" points="1003.18,-45.58 1007.91,-36.1 998.3,-40.57 1003.18,-45.58"/>
</g>
</g>
</svg>
